<svg version="1.1" xmlns="http://www.w3.org/2000/svg" viewBox="0 0 536.75 442" width="536.75" height="442">
  <!-- svg-source:excalidraw -->
  
  <defs>
    <style>
      @font-face {
        font-family: "Virgil";
        src: url("https://excalidraw.com/Virgil.woff2");
      }
      @font-face {
        font-family: "Cascadia";
        src: url("https://excalidraw.com/Cascadia.woff2");
      }
    </style>
  </defs>
  <g transform="translate(244.5 349) rotate(0 46 41.5)"><path d="M54.23101673175518 0.9459557446103162 C62.44570095237431 1.65935258607213, 72.69924745723023 5.713901162329756, 78.74414552885324 11.091834320204477 C84.78904360047625 16.4697674780792, 89.00862025917061 25.516202455176717, 90.50040516149326 33.21355469185864 C91.99219006381591 40.91090692854056, 90.77497128140456 50.25804140321, 87.69485494278915 57.27594774029602 C84.61473860417374 64.29385407738204, 78.87694712427036 71.08737307700693, 72.01970712980082 75.32099271437474 C65.16246713533128 79.55461235174255, 55.07084767487761 82.64067057517423, 46.55141497597191 82.67766556450286 C38.031982277066206 82.7146605538315, 28.273125847295642 79.96175644384755, 20.90311093636659 75.54296265034657 C13.53309602543754 71.12416885684559, 5.507603007213998 63.19890249293327, 2.3313255103975976 56.164902803497014 C-0.8449519864188022 49.13090311406076, -0.16057181113202823 40.9482361748368, 1.8454459554681932 33.338964513729024 C3.8514637220684147 25.72969285262125, 8.403636820421223 16.0248416580363, 14.367432109998926 10.509272836850354 C20.33122739957663 4.993704015664407, 30.084239897882828 1.6686684161805723, 37.628217692934406 0.2455515866133453 C45.17219548798599 -1.1775652429538817, 55.188103858135676 1.231504327919294, 59.63129888030841 1.9705718594469914 C64.07449390248114 2.7096393909746888, 64.52770616529243 3.987219511743728, 64.2873878259708 4.67995677577953 M64.36242529553104 1.9421626990921794 C72.46108867930344 4.125436936852152, 80.7362584153487 12.115053908376701, 85.25709897241242 18.870363033274817 C89.77793952947614 25.625672158172932, 91.52257265115281 34.731703102197514, 91.48746863791335 42.47401744848087 C91.45236462467389 50.21633179476423, 89.74940475895815 58.89097337381122, 85.04647489297565 65.32424911097497 C80.34354502699316 71.75752484813873, 71.63071669268064 78.38927093756567, 63.26988944201834 81.0736718714634 C54.90906219135604 83.75807280536114, 43.4260449778277 83.49763444397148, 34.88151138900186 81.43065471436134 C26.336977800176015 79.3636749847512, 17.818309313189783 74.3966921860976, 12.002687909063276 68.67179349380254 C6.1870665049367695 62.946894801507476, 1.2917370293400303 54.65213259773483, -0.012217035757181804 47.08126256059096 C-1.316171100854394 39.51039252344709, 0.588676151224556 29.9758920180278, 4.178963518480003 23.246573270939308 C7.769250885735451 16.517254523850816, 14.296947123061003 10.60765120242946, 21.529507167775503 6.7053500780600075 C28.762067212490003 2.803048953690555, 40.470792484854634 0.5323139571394412, 47.574323786767 -0.16723347527740628 C54.67785508867937 -0.8667809076942538, 61.614000723351666 1.8354303320888952, 64.1506949792497 2.508065483558923 C66.68738923514775 3.1807006350289506, 63.320406941596985 3.301497541510416, 62.794489322155236 3.868577433542761" stroke="#000000" stroke-width="1" fill="none"></path></g><g><g transform="translate(337 390) rotate(0 92.8615656180121 0.3028909686952943)"><path d="M0.4375040408223867 1.1575545374304055 C31.66336559417347 0.9539296809583901, 155.32385639709733 -0.16118904910981663, 186.51507630310954 -0.5517726000398397 M-0.7919450670853256 0.7196667242422699 C30.306972512962915 0.6135065663233398, 153.99276213662077 0.8977634883299469, 185.3124458986148 0.6959720361605286" stroke="#000000" stroke-width="1" fill="none"></path></g></g><g><g transform="translate(263 360) rotate(0 29.54994989000261 32.088541914876544)"><path d="M-0.4849236968904733 -0.5517726000398397 C9.372962875788412 9.89097718236347, 49.610077086711925 52.83105267124871, 59.58482347689569 63.81405323185027 M1.4613526329025626 1.7729428396001459 C11.1741083674257 12.825004005966086, 49.38924868828306 54.49343211187671, 58.94381033863872 64.72885642979294" stroke="#000000" stroke-width="1" fill="none"></path></g></g><g><g transform="translate(260.5000000000001 359.5000000000001) rotate(91.5650670297927 29.398135858569333 32.08014199770987)"><path d="M0.5848234768956899 -1.1859467681497335 C10.559569867079457 9.79705379245182, 49.74349384667973 54.191473077113436, 59.36355464421213 65.34623076356948 M-0.5672829270735382 0.805827233232558 C9.323684029144545 11.46177083635082, 48.98270924723396 52.9080732308204, 58.606375368796286 63.40542716566473" stroke="#000000" stroke-width="1" fill="none"></path></g></g><g><g transform="translate(56.5 391) rotate(0 95.22737432366233 -0.12375569427385358)"><path d="M0.3635546442121267 0.34623076356947413 C31.768132093107937 0.6676551166921854, 157.51948859918235 0.6511146489530802, 189.01228817027055 0.7425993505865336 M-0.9047178969159723 -0.5176020308956504 C30.839870181872186 -0.4330621441826224, 159.81674503497152 -0.9134733721241355, 191.35946654424063 -0.9901107391342521" stroke="#000000" stroke-width="1" fill="none"></path></g></g><g><g transform="translate(57 82.75) rotate(0 0.36780128454790884 56.97580641144887)"><path d="M-0.3365017231553793 -0.07467843331396584 C-0.14280258975923063 18.74285639884571, 0.14012898840010166 94.79973239464064, -0.002654498443007469 114.06470565758646 M1.6876961428485813 -1.1594885561428965 C1.8250660324655474 18.289119811101507, -0.849922161642462 96.0106686900494, -0.9520935737527907 115.11110137904063" stroke="#000000" stroke-width="1" fill="none"></path></g></g><g><g transform="translate(57 278.25) rotate(0 -0.14369633797554116 56.834069581665105)"><path d="M-0.07467843331396584 -0.002654498443007469 C-0.4238102678209544 19.02122868138055, -1.033600938692689 94.48242169854541, -0.9352943424135447 113.80679735578596 M-1.5730233401432634 -1.0496520554646849 C-1.6534706765785814 18.103637541967135, 1.0201396995410323 95.52676987850418, 1.2856306641921402 114.71779121879489" stroke="#000000" stroke-width="1" fill="none"></path></g></g><g transform="translate(10 196.5) rotate(0 46 41.5)"><path d="M59.82703304915498 2.3606959798579794 C67.6078434726235 4.253691372231958, 77.03715974300307 10.05748313487798, 82.22360915649219 16.103412021918786 C87.4100585699813 22.14934090895959, 90.41860462250763 30.93374050002218, 90.9457295300897 38.63626930210281 C91.47285443767176 46.33879810418344, 89.52008560783852 55.71636972297207, 85.38635860198457 62.31858483440257 C81.25263159613061 68.92079994583308, 73.8049333873427 74.90170041786516, 66.14336749496599 78.24955997068584 C58.48180160258927 81.59741952350652, 47.973920804062914 83.46159184036658, 39.4169632477243 82.40574215132665 C30.860005691385677 81.34989246228672, 21.156882216680753 77.18211902823286, 14.801622156934265 71.91446183644626 C8.446362097187777 66.64680464465967, 3.3286689556861595 58.27507711540692, 1.2854028892453755 50.79979900060704 C-0.7578631771954085 43.32452088580715, -0.6604818657867466 34.274373898182546, 2.5420257582895616 27.062793147646946 C5.744533382365869 19.851212397111347, 13.301210616250515 12.152386593883037, 20.500448633703225 7.530314497393434 C27.699686651155936 2.9082424009038315, 38.789244403834616 0.0857221446185541, 45.737453863005825 -0.669639431290669 C52.685663322177035 -1.4250010071998922, 58.99583296901839 2.0973179347367292, 62.18970538873048 2.998145041938095 C65.38357780844257 3.8989721491394604, 64.91471530362475 4.032713887601143, 64.90068838127837 4.735323211917525 M57.98332070457856 0.4873266838024506 C66.29434393542824 2.2802867209609508, 75.99867478342284 9.9392695803196, 81.53053736020033 15.999825144054324 C87.06239993697781 22.060380707789047, 90.4893650172001 29.343786626889656, 91.17449616524343 36.8506600662108 C91.85962731328675 44.35753350553194, 89.78267822841993 54.275460590399454, 85.6413242484603 61.04106577998118 C81.49997026850066 67.80667096956292, 73.89693164048487 73.89007819798962, 66.3263722854856 77.44429120370117 C58.755812930486336 80.99850420941272, 48.49458304954905 83.13680416069273, 40.21796811846468 82.3663438142505 C31.941353187380315 81.59588346780826, 23.07427255083147 77.91241760037079, 16.6666826989794 72.82152912504777 C10.25909284712733 67.73064064972476, 3.972707386438286 59.37728924556271, 1.7724290073522582 51.82101296231244 C-0.4278493717337697 44.26473667906217, 0.712543843521082 34.56123377144806, 3.4650124244632323 27.483871425546162 C6.217481005405382 20.40650907964427, 11.785367881997999 13.975329644472154, 18.28724049300516 9.35683888690108 C24.789113104012323 4.7383481293300065, 35.98729685635535 1.1674706947393159, 42.4762480905062 -0.22707311988028067 C48.96519932465706 -1.6216169344998772, 54.86444040443757 0.5780295788411276, 57.22094789791027 0.9895759991835007 C59.57745539138297 1.4011224195258738, 56.72497469400966 1.6700051926794317, 56.61529305134241 2.2422054021739584" stroke="#000000" stroke-width="1" fill="none"></path></g><g><g transform="translate(55.5 83.5) rotate(0 114.08356478804723 0.6079671107791356)"><path d="M1.1970111485570667 0.9251519981771705 C38.62423016530151 0.9737663690000771, 188.03148764430856 0.13736391700804235, 225.71251716215164 -0.1273231800645589 M0.3663032722100614 0.3652528518810869 C38.04100483313824 0.6437575155869126, 190.07546903464322 1.3530567616596818, 227.80082630388438 1.3432574016228318" stroke="#000000" stroke-width="1" fill="none"></path></g></g><g><g transform="translate(309.45171806788073 82.5) rotate(0 106.43633840996768 -0.36799402272328763)"><path d="M0.9251519981771705 -1.1878959897905588 C36.48181335768662 -1.32360199727118, 177.67759886044075 0.2936378952115774, 212.9209587520547 0.3827751036733389 M-0.04828193211928 0.8028546702302992 C35.375880683260036 0.8002707570232451, 176.68609604791737 -1.4586254215799273, 211.9060686188936 -1.538842715676874" stroke="#000000" stroke-width="1" fill="none"></path></g></g><g><g transform="translate(522 80.77896977359434) rotate(0 0.7462037113543829 154.95510789451185)"><path d="M-0.2997600015252828 -0.1150336269289256 C0.016767424717545498 51.65053024504023, 0.7364738289266822 258.07905464189434, 0.8117945138365028 310.1540076282434 M1.743727268334478 -1.22103022640571 C2.0684103045426308 50.69398228173764, 0.6695037201605736 259.1649343930588, 0.28994116997346264 311.13124601542944" stroke="#000000" stroke-width="1" fill="none"></path></g></g><g><g transform="translate(285 42) rotate(0 -0.31962089495095825 39.04069765741006)"><path d="M0.7527055207639932 0.24819279871881017 C0.5348224703222513 13.182131592060129, -0.278239756450057 64.52204973263045, -0.28541304431855674 77.8269376989454 M-0.31126281017437574 -0.6671099272929133 C-0.8015557509101927 12.34901448075349, -1.4879344975389541 65.58720263048386, -1.3833003562130035 78.74850524211303" stroke="#000000" stroke-width="1" fill="none"></path></g></g><g><g transform="translate(307 67) rotate(0 -0.7262500310085329 15.968437396790833)"><path d="M-0.0015468958765267882 -0.27021085582673554 C0.033920319502552386 5.234409374371172, -0.004686828826864664 27.895419031754138, -0.3482216123491526 33.394550294056536 M-1.4614977455511688 -1.4576755004748703 C-1.4779315309102337 3.6437380987778303, -1.2432662829135854 25.586590811647476, -0.9540834224596619 31.4791144496575" stroke="#000000" stroke-width="4" fill="none"></path></g></g><g transform="translate(254 10) rotate(0 11.5 23)"><text x="0" y="32" font-family="Virgil, Segoe UI Emoji" font-size="36px" fill="#000000" text-anchor="start" style="white-space: pre;" direction="ltr">+</text></g><g transform="translate(322 10) rotate(0 7.5 23)"><text x="0" y="32" font-family="Virgil, Segoe UI Emoji" font-size="36px" fill="#000000" text-anchor="start" style="white-space: pre;" direction="ltr">-</text></g><g transform="translate(518.75 269.25) rotate(0 4 3.5)"><path d="M4 0 C4.8141976389362835 -0.044685925848607054, 5.9146119367380185 0.3368058860559529, 6.571150438746157 0.8188444490835769 C7.2276889407542955 1.300883012111201, 7.790405815983566 2.1537054530130066, 7.9392310120488325 2.892231378165744 C8.088056208114098 3.630757303318481, 7.892626688262115 4.600551200902511, 7.464101615137755 5.25 C7.035576542013396 5.899448799097489, 6.173444271376081 6.532436810625566, 5.3680805733026755 6.788924172750679 C4.56271687522927 7.045411534875792, 3.4372831247707305 7.045411534875792, 2.6319194266973254 6.788924172750679 C1.8265557286239202 6.532436810625566, 0.9644234579866047 5.899448799097489, 0.5358983848622452 5.25 C0.10737331173788561 4.600551200902511, -0.08805620811409823 3.6307573033184806, 0.06076898795116792 2.8922313781657434 C0.20959418401643407 2.153705453013006, 0.7723110592457035 1.3008830121112012, 1.428849561253842 0.8188444490835773 C2.0853880632619806 0.33680588605595346, 3.5714749268756396 0.12480740818059617, 3.999999999999999 0 C4.428525073124359 -0.12480740818059617, 4 0.011666666666666936, 4 0.07000000000000028" stroke="none" stroke-width="0" fill="#000000"></path><path d="M4 0 C4.8141976389362835 -0.044685925848607054, 5.9146119367380185 0.3368058860559529, 6.571150438746157 0.8188444490835769 C7.2276889407542955 1.300883012111201, 7.790405815983566 2.1537054530130066, 7.9392310120488325 2.892231378165744 C8.088056208114098 3.630757303318481, 7.892626688262115 4.600551200902511, 7.464101615137755 5.25 C7.035576542013396 5.899448799097489, 6.173444271376081 6.532436810625566, 5.3680805733026755 6.788924172750679 C4.56271687522927 7.045411534875792, 3.4372831247707305 7.045411534875792, 2.6319194266973254 6.788924172750679 C1.8265557286239202 6.532436810625566, 0.9644234579866047 5.899448799097489, 0.5358983848622452 5.25 C0.10737331173788561 4.600551200902511, -0.08805620811409823 3.6307573033184806, 0.06076898795116792 2.8922313781657434 C0.20959418401643407 2.153705453013006, 0.7723110592457035 1.3008830121112012, 1.428849561253842 0.8188444490835773 C2.0853880632619806 0.33680588605595346, 3.5714749268756396 0.12480740818059617, 3.999999999999999 0 C4.428525073124359 -0.12480740818059617, 4 0.011666666666666936, 4 0.07000000000000028" stroke="#000000" stroke-width="1.5" fill="none" stroke-dasharray="12 8"></path></g><g transform="translate(518.75 205) rotate(0 4 3.5)"><path d="M4 0 C4.8141976389362835 -0.044685925848607054, 5.9146119367380185 0.3368058860559529, 6.571150438746157 0.8188444490835769 C7.2276889407542955 1.300883012111201, 7.790405815983566 2.1537054530130066, 7.9392310120488325 2.892231378165744 C8.088056208114098 3.630757303318481, 7.892626688262115 4.600551200902511, 7.464101615137755 5.25 C7.035576542013396 5.899448799097489, 6.173444271376081 6.532436810625566, 5.3680805733026755 6.788924172750679 C4.56271687522927 7.045411534875792, 3.4372831247707305 7.045411534875792, 2.6319194266973254 6.788924172750679 C1.8265557286239202 6.532436810625566, 0.9644234579866047 5.899448799097489, 0.5358983848622452 5.25 C0.10737331173788561 4.600551200902511, -0.08805620811409823 3.6307573033184806, 0.06076898795116792 2.8922313781657434 C0.20959418401643407 2.153705453013006, 0.7723110592457035 1.3008830121112012, 1.428849561253842 0.8188444490835773 C2.0853880632619806 0.33680588605595346, 3.5714749268756396 0.12480740818059617, 3.999999999999999 0 C4.428525073124359 -0.12480740818059617, 4 0.011666666666666936, 4 0.07000000000000028" stroke="none" stroke-width="0" fill="#000000"></path><path d="M4 0 C4.8141976389362835 -0.044685925848607054, 5.9146119367380185 0.3368058860559529, 6.571150438746157 0.8188444490835769 C7.2276889407542955 1.300883012111201, 7.790405815983566 2.1537054530130066, 7.9392310120488325 2.892231378165744 C8.088056208114098 3.630757303318481, 7.892626688262115 4.600551200902511, 7.464101615137755 5.25 C7.035576542013396 5.899448799097489, 6.173444271376081 6.532436810625566, 5.3680805733026755 6.788924172750679 C4.56271687522927 7.045411534875792, 3.4372831247707305 7.045411534875792, 2.6319194266973254 6.788924172750679 C1.8265557286239202 6.532436810625566, 0.9644234579866047 5.899448799097489, 0.5358983848622452 5.25 C0.10737331173788561 4.600551200902511, -0.08805620811409823 3.6307573033184806, 0.06076898795116792 2.8922313781657434 C0.20959418401643407 2.153705453013006, 0.7723110592457035 1.3008830121112012, 1.428849561253842 0.8188444490835773 C2.0853880632619806 0.33680588605595346, 3.5714749268756396 0.12480740818059617, 3.999999999999999 0 C4.428525073124359 -0.12480740818059617, 4 0.011666666666666936, 4 0.07000000000000028" stroke="#000000" stroke-width="1.5" fill="none" stroke-dasharray="12 8"></path></g><g transform="translate(43.5 215) rotate(0 12.5 23)"><text x="12.5" y="32" font-family="Virgil, Segoe UI Emoji" font-size="36px" fill="#000000" text-anchor="middle" style="white-space: pre;" direction="ltr">M</text></g><g><g transform="translate(522.75 210) rotate(0 0 31.875)"><path d="M0 0 C0 10.625, 0 53.125, 0 63.75 M0 0 C0 10.625, 0 53.125, 0 63.75" stroke="#000000" stroke-width="4" fill="none"></path></g></g></svg>